<svg width="240" height="160" viewBox="0 0 240 160" xmlns="http://www.w3.org/2000/svg"><path d="M74.84 136.52c11.04 0 20.94-2.31 29.7-6.93 8.76-4.62 15.6-11.04 20.52-19.26 4.92-8.22 7.38-17.49 7.38-27.81 0-10.08-2.46-19.14-7.38-27.18s-11.76-14.31-20.52-18.81c-8.76-4.5-18.6-6.75-29.52-6.75-10.92 0-20.76 2.28-29.52 6.84-8.76 4.56-15.6 10.89-20.52 18.99-4.92 8.1-7.38 17.19-7.38 27.27 0 10.2 2.46 19.38 7.38 27.54s11.73 14.55 20.43 19.17c8.7 4.62 18.51 6.93 29.43 6.93zm.18-26.64c-6.84 0-12.48-2.58-16.92-7.74-4.44-5.16-6.66-11.76-6.66-19.8 0-7.56 2.22-13.77 6.66-18.63 4.44-4.86 10.02-7.29 16.74-7.29 6.96 0 12.66 2.49 17.1 7.47 4.44 4.98 6.66 11.37 6.66 19.17 0 7.8-2.22 14.22-6.66 19.26-4.44 5.04-10.08 7.56-16.92 7.56zM221.9 134l-2.16-25.74h-32.76l7.38-6.3c9-7.56 15.63-14.43 19.89-20.61s6.39-12.81 6.39-19.89c0-10.92-3.81-18.93-11.43-24.03-7.62-5.1-18.15-7.65-31.59-7.65-12.72 0-24.3 3.12-34.74 9.36l4.14 26.64c4.08-2.28 8.82-4.38 14.22-6.3s10.5-2.88 15.3-2.88c4.68 0 8.34.72 10.98 2.16 2.64 1.44 3.96 3.6 3.96 6.48 0 2.52-1.05 5.01-3.15 7.47-2.1 2.46-5.31 5.55-9.63 9.27-1.92 1.44-3.3 2.58-4.14 3.42l-34.02 29.52V134h81.36z" fill="#FFF" fill-rule="nonzero" opacity=".5"/></svg>