<?xml version="1.0" encoding="UTF-8"?> <svg xmlns="http://www.w3.org/2000/svg" xmlns:xlink="http://www.w3.org/1999/xlink" width="476px" height="456px" viewBox="0 0 476 456"><!-- Generator: Sketch 61.2 (89653) - https://sketch.com --><title>slider2-bg-text</title><desc>Created with Sketch.</desc><g id="Home" stroke="none" stroke-width="1" fill="none" fill-rule="evenodd"><g transform="translate(-469.000000, -216.000000)" fill="#FA7B7A" id="Slider"><g transform="translate(-48.000000, -60.000000)"><g id="pink" transform="translate(-213.000000, -816.000000)"><g id="slider2-bg-text" transform="translate(730.000000, 1092.000000)"><path d="M240.84507,455.17726 C341.218129,445.543879 341.218129,433.502153 405.709654,370.885175 C441.972315,335.676545 468.84507,282.032975 468.84507,227.58863 C468.84507,223.54433 468.84507,155.338271 420.223543,106.748024 C367.241618,53.8001837 321.416324,0 240.84507,0 C172.265224,0 125.364406,23.0828925 83.5672926,70.9144798 C48.6198322,110.907493 12.8450704,170.351012 12.8450704,227.58863 C12.8450704,274.426699 18.8915819,320.341391 43.1922926,356.529179 C84.1044963,417.454237 162.218433,462.723512 240.84507,455.17726 Z" id="Oval-Copy-2"></path><path d="M394.282683,393.327668 L399.374087,398.772517 C393.072912,405.628745 384.845563,410.754752 375.917583,413.171712 C375.210193,413.367922 374.104052,410.9688 374.62671,410.569689 C375.412198,409.975111 376.188174,409.37767 376.955166,408.777134 L377.996,407.954592 L377.97347,407.95851 C377.362423,408.039204 376.750512,408.106241 376.138361,408.159418 C375.480533,408.21739 374.757374,405.760296 375.370145,405.474898 C382.430525,402.161612 388.657358,398.021119 394.282683,393.327668 Z M27.3359899,150.920871 C16.2874282,171.005092 10.088426,193.342676 7.91999594,215.915948 C5.75156589,238.526667 7.47610033,261.423736 12.4321948,283.589509 C17.4171425,305.790526 25.4716283,327.297691 35.4415237,347.921574 C45.4180775,368.560876 57.2811877,388.347733 70.1097708,407.535455 C72.0895452,410.513506 70.0764786,412.066409 67.8436837,409.13021 C53.754437,390.702419 40.763832,371.298832 29.899487,350.641909 C19.0462394,330.009215 10.343666,308.065915 5.15674578,285.175454 C-0.0101991099,262.2916 -1.45507932,238.482613 1.55453291,215.193463 C4.54416984,191.939556 12.1725159,169.126189 24.8501745,149.462683 C26.9409228,146.1322 29.040549,147.729158 27.3359899,150.920871 Z M393.908713,393.65097 C388.980639,398.637993 383.785042,403.346309 378.098983,407.87398 L377.996,407.954592 L378.584206,407.873269 C385.705568,406.825858 392.681183,403.928473 398.522508,399.499275 L399.020393,399.115885 Z M434.209785,337.256799 C433.043865,353.044517 428.802038,367.936367 421.829838,381.963472 C421.560617,382.505883 419.220298,381.812309 419.281774,381.18987 C420.852585,365.508856 424.502974,350.45028 431.562088,336.454297 C431.858867,335.865203 434.256422,336.632137 434.209785,337.256799 Z M394.509081,47.4890157 C408.145596,55.4494322 419.910433,66.3101555 430.217023,78.0612465 C435.389417,83.9434036 440.240503,90.079007 444.880378,96.313785 C449.513513,102.530932 454.083734,108.895739 458.134918,115.692507 C462.213066,122.462828 465.601411,129.79073 468.05504,137.310371 C470.537879,144.832215 472.205088,152.545797 473.303829,160.274806 C475.50131,175.761474 475.420421,191.243735 475.096865,206.578336 C475.042939,208.951915 472.467977,209.097371 472.285977,206.657676 C471.124323,191.360541 470.030076,176.078833 467.124818,161.253329 C464.25551,146.419009 459.478572,132.179737 451.616624,119.412657 C447.749686,112.970714 443.368206,106.731528 438.912577,100.465896 C434.472677,94.211283 429.949641,88.0580486 425.19742,82.0877362 C415.7132,70.1647425 405.271794,58.9447867 392.884563,49.8714106 C390.821896,48.3441214 392.349797,46.2129689 394.509081,47.4890157 Z M63.2311911,61.8107502 C43.194967,80.1812561 24.3832892,98.8348275 4.81261335,117.632143 C3.98742364,118.417207 2.00387938,116.716603 2.59739818,115.803275 C17.3735894,92.7135369 37.9018383,73.3102844 61.5719861,59.5970898 C62.4810186,59.0641306 64.0276977,61.0721262 63.2311911,61.8107502 Z" id="Combined-Shape"></path></g></g></g></g></g></svg> 