<?xml version="1.0" encoding="UTF-8"?> <svg xmlns="http://www.w3.org/2000/svg" xmlns:xlink="http://www.w3.org/1999/xlink" width="1352px" height="1041px" viewBox="0 0 1352 1041"><!-- Generator: Sketch 61.2 (89653) - https://sketch.com --><title>slider2-bg-splash</title><desc>Created with Sketch.</desc><g id="Cut" stroke="none" stroke-width="1" fill="none" fill-rule="evenodd" opacity="0.200217"><path d="M1121.47249,985 L1136,1000.35658 C1118.0206,1019.6938 1094.54518,1034.15112 1069.07062,1040.96788 C1067.0522,1041.52127 1063.896,1034.75482 1065.38732,1033.62917 C1068.3537,1031.40969 1071.27254,1029.17607 1074.14732,1026.92678 L1075.001,1026.255 L1074.12,1026.36841 C1072.64806,1026.55031 1071.17456,1026.70471 1069.70058,1026.83128 C1067.82357,1026.99478 1065.76015,1020.06482 1067.50859,1019.25989 C1087.65426,1009.91514 1105.42153,998.237348 1121.47249,985 Z M77.8639565,295.394367 C46.3931837,352.497693 28.735918,416.007763 22.5593521,480.187943 C16.3827862,544.474589 21.2949578,609.575386 35.4119196,672.596966 C49.611067,735.718749 72.5535007,796.86778 100.951796,855.505468 C129.369056,914.186994 163.159993,970.444855 199.700986,1024.99926 C205.340185,1033.46643 199.606157,1037.88164 193.246254,1029.53346 C153.11438,977.139685 116.111883,921.971534 85.1658333,863.239906 C54.2513939,804.577168 29.4629447,742.188121 14.6884979,677.106112 C-0.0290511906,612.042891 -4.14465447,544.349335 4.42793854,478.133776 C12.9436338,412.018421 34.672249,347.155607 70.7833487,291.248458 C76.7386457,281.779251 82.7192305,286.319711 77.8639565,295.394367 Z M1120.40543,985.911836 C1106.50939,999.811699 1091.86787,1012.94388 1075.86694,1025.57532 L1075.001,1026.255 C1096.18935,1023.47847 1117.00867,1015.01352 1134.27349,1001.87515 L1134.99079,1001.32501 Z M1234.99811,824.891557 C1231.7182,869.934795 1219.7853,912.422072 1200.17144,952.442183 C1199.41408,953.989712 1192.83041,952.010905 1193.00335,950.235052 C1197.42228,905.496246 1207.69138,862.533294 1227.54974,822.601976 C1228.38462,820.921258 1235.12931,823.109362 1234.99811,824.891557 Z M1122.39197,1.11082772 C1161.16253,23.7596587 1194.61165,54.6603892 1223.91476,88.0943777 C1238.62061,104.830183 1252.41294,122.28709 1265.60477,140.026166 C1278.77743,157.715078 1291.77123,175.82411 1303.28932,195.162149 C1314.88408,214.424942 1324.51763,235.274156 1331.49364,256.668899 C1338.55271,278.069912 1343.29283,300.016454 1346.4167,322.006889 C1352.66445,366.069274 1352.43448,410.119118 1351.51456,453.748843 C1351.36124,460.502107 1344.04026,460.915956 1343.5228,453.974578 C1340.22006,410.451451 1337.10896,366.972217 1328.84889,324.790964 C1320.69104,282.584629 1307.10952,242.071314 1284.75688,205.746652 C1273.76262,187.418155 1261.30545,169.666538 1248.63746,151.839675 C1236.01419,134.044165 1223.15455,116.537096 1209.6433,99.5504725 C1182.67831,65.6273896 1152.9919,33.7045772 1117.77323,7.88917386 C1111.90878,3.54375862 1116.25282,-2.5197573 1122.39197,1.11082772 Z M179.373518,41.5531972 C122.515587,93.8375833 69.1326201,146.927603 13.5958018,200.426734 C11.254114,202.66111 5.62529783,197.821012 7.30955986,195.221584 C49.2407969,129.505769 107.494975,74.2820774 174.665097,35.2528877 C177.244711,33.73603 181.63381,39.450996 179.373518,41.5531972 Z" id="slider2-bg-splash" fill="#FA7B7A"></path></g></svg> 