<svg width="240" height="160" viewBox="0 0 240 160" xmlns="http://www.w3.org/2000/svg"><path d="M71.84 136.52c11.04 0 20.94-2.31 29.7-6.93 8.76-4.62 15.6-11.04 20.52-19.26 4.92-8.22 7.38-17.49 7.38-27.81 0-10.08-2.46-19.14-7.38-27.18s-11.76-14.31-20.52-18.81c-8.76-4.5-18.6-6.75-29.52-6.75-10.92 0-20.76 2.28-29.52 6.84-8.76 4.56-15.6 10.89-20.52 18.99-4.92 8.1-7.38 17.19-7.38 27.27 0 10.2 2.46 19.38 7.38 27.54s11.73 14.55 20.43 19.17c8.7 4.62 18.51 6.93 29.43 6.93zm.18-26.64c-6.84 0-12.48-2.58-16.92-7.74-4.44-5.16-6.66-11.76-6.66-19.8 0-7.56 2.22-13.77 6.66-18.63 4.44-4.86 10.02-7.29 16.74-7.29 6.96 0 12.66 2.49 17.1 7.47 4.44 4.98 6.66 11.37 6.66 19.17 0 7.8-2.22 14.22-6.66 19.26-4.44 5.04-10.08 7.56-16.92 7.56zm104.76 38.16c9.48 0 17.88-1.53 25.2-4.59 7.32-3.06 12.99-7.29 17.01-12.69 4.02-5.4 6.03-11.58 6.03-18.54 0-5.16-1.5-10.35-4.5-15.57-3-5.22-6.66-9.09-10.98-11.61 3.36-1.8 6.45-5.1 9.27-9.9 2.82-4.8 4.23-9.3 4.23-13.5 0-6.24-1.83-11.76-5.49-16.56-3.66-4.8-8.82-8.55-15.48-11.25-6.66-2.7-14.37-4.05-23.13-4.05-16.8 0-30.84 4.44-42.12 13.32l15.66 22.14c8.64-5.88 16.38-8.82 23.22-8.82 4.44 0 7.8.75 10.08 2.25 2.28 1.5 3.42 3.45 3.42 5.85 0 3-1.56 5.43-4.68 7.29-3.12 1.86-7.2 2.79-12.24 2.79h-14.76l2.7 25.74h18.54c3.72 0 6.72.96 9 2.88 2.28 1.92 3.42 4.62 3.42 8.1 0 3.12-1.35 5.61-4.05 7.47-2.7 1.86-6.09 2.79-10.17 2.79-4.32 0-8.55-.69-12.69-2.07-4.14-1.38-8.73-3.69-13.77-6.93l-17.46 21.78c6.72 4.32 14.01 7.68 21.87 10.08 7.86 2.4 15.15 3.6 21.87 3.6z" fill="#FFF" fill-rule="nonzero" opacity=".5"/></svg>