<svg width="870" height="520" viewBox="0 0 870 520" xmlns="http://www.w3.org/2000/svg" xmlns:xlink="http://www.w3.org/1999/xlink"><defs><path d="M77.272 907.105v-.005l-17.687-41.076-.005-.005-9.787-22.733a2.468 2.468 0 0 0-.204-.301c-.1-.188-.224-.36-.363-.519a2.699 2.699 0 0 0-.556-.38 2.556 2.556 0 0 0-.268-.183l-.025-.005a2.57 2.57 0 0 0-.72-.153 2.989 2.989 0 0 0-.304-.059c-.05 0-.104.025-.154.03-.298.01-.591.074-.864.182l-.02.005c-.07.04-.14.09-.204.139a2.543 2.543 0 0 0-.626.424 2.508 2.508 0 0 0-.343.504 1.992 1.992 0 0 0-.218.316l-9.788 22.733-.005.005L17.444 907.1v.005a2.545 2.545 0 0 0-.214 1.032v51.097c0 .697.279 1.368.775 1.862a2.66 2.66 0 0 0 1.874.77h54.96c.7 0 1.376-.276 1.873-.77a2.627 2.627 0 0 0 .775-1.862v-51.097c0-.355-.07-.706-.214-1.032zm-52.81-1.323l15.32-36.054h8.782l-14.821 36.05-9.282.004zM47.76 851.3l5.624 13.621H42.136l5.624-13.62zm6.226 18.428h1.509l15.564 36.054H38.923l15.063-36.054zM22.854 910.59h5.624v45.668h-5.624V910.59zm24.743 45.668H33.3V910.59h39.367v45.668H47.597z" id="a"/></defs><g fill="none" fill-rule="evenodd" opacity=".2"><g transform="rotate(-90 223.112 299.23)"><use fill="#020D26" xlink:href="#a"/><use fill="#0A303A" xlink:href="#a"/></g><path d="M750.281 471.91l-.99.133a2 2 0 1 0 .53 3.965l.992-.133a2 2 0 1 0-.532-3.965zm-18.287-3.221l-.896-.445a2 2 0 1 0-1.78 3.582l.895.445a2 2 0 0 0 1.78-3.582zm-14.837-12.048l-.65-.76a2 2 0 1 0-3.04 2.6l.65.76a2 2 0 0 0 3.04-2.6zm-10.762-16.247l-.466-.885a2 2 0 1 0-3.54 1.86l.465.886a2 2 0 1 0 3.54-1.86zm-7.899-18.09l-.343-.939a2 2 0 0 0-3.757 1.371l.342.94a2 2 0 0 0 3.758-1.371zm-5.91-18.92l-.257-.966a2 2 0 0 0-3.865 1.033l.259.966a2 2 0 0 0 3.864-1.033zm-4.49-19.37l-.197-.981a2 2 0 1 0-3.922.786l.197.98a2 2 0 1 0 3.922-.786zm-4.532-19.67l-.3-.953a2 2 0 0 0-3.815 1.202l.3.954a2 2 0 1 0 3.815-1.202zm-7.801-18.802l-.46-.887a2 2 0 1 0-3.55 1.843l.46.888a2 2 0 1 0 3.55-1.844zm-10.751-17.203l-.593-.805a2 2 0 1 0-3.22 2.372l.592.805a2 2 0 0 0 3.221-2.372zm-13.134-15.455l-.697-.718a2 2 0 0 0-2.87 2.786l.697.718a2 2 0 1 0 2.87-2.786zM636.98 299.26l-.775-.633a2 2 0 0 0-2.529 3.1l.775.632a2 2 0 1 0 2.529-3.1zm-16.285-11.956l-.834-.552a2 2 0 1 0-2.208 3.335l.834.552a2 2 0 0 0 2.208-3.335zm-17.318-10.4l-.878-.478a2 2 0 1 0-1.913 3.512l.878.479a2 2 0 0 0 1.913-3.513zm-18.07-8.966l-.911-.411a2 2 0 0 0-1.646 3.646l.912.411a2 2 0 0 0 1.645-3.646zm-18.642-7.669l-.936-.35a2 2 0 1 0-1.402 3.746l.937.35a2 2 0 1 0 1.401-3.746zm-19.067-6.487l-.955-.295a2 2 0 0 0-1.179 3.823l.956.294a2 2 0 0 0 1.178-3.822zm-19.287-5.383l-.97-.244a2 2 0 0 0-.975 3.88l.97.243a2 2 0 1 0 .975-3.88zm-19.59-4.415l-.98-.197a2 2 0 0 0-.786 3.922l.98.197a2 2 0 0 0 .787-3.922zm-19.784-3.506l-.988-.153a2 2 0 1 0-.612 3.953l.988.153a2 2 0 0 0 .612-3.953zm-19.918-2.657l-.993-.113a2 2 0 1 0-.449 3.975l.994.112a2 2 0 0 0 .448-3.974zm-19.974-1.863l-.998-.074a2 2 0 1 0-.295 3.99l.997.073a2 2 0 1 0 .296-3.989zm-20.062-1.121l-1-.038a2 2 0 1 0-.151 3.997l.999.038a2 2 0 0 0 .152-3.997zm-20.071-.42l-1-.005a2 2 0 1 0-.017 4l1 .004a2 2 0 1 0 .017-4zm-20.076.241l-1 .028a2 2 0 1 0 .112 3.999l1-.028a2 2 0 0 0-.112-3.999zm-20.052.87l-.998.059a2 2 0 1 0 .234 3.993l.998-.059a2 2 0 1 0-.234-3.993zm-19.991 1.46l-.997.082a2 2 0 1 0 .326 3.987l.997-.082a2 2 0 1 0-.326-3.986zm-19.88 1.142l-1 .032a2 2 0 0 0 .13 3.998l1-.032a2 2 0 1 0-.13-3.998zm-19.898.117l-1-.021a2 2 0 0 0-.086 3.999l1 .021a2 2 0 1 0 .086-3.999zm-19.87-.997l-.996-.08a2 2 0 1 0-.319 3.987l.997.08a2 2 0 0 0 .319-3.987zm-19.729-2.198l-.99-.142a2 2 0 1 0-.57 3.96l.99.142a2 2 0 0 0 .57-3.96zm-19.57-3.488l-.977-.209a2 2 0 1 0-.836 3.912l.977.209a2 2 0 0 0 .837-3.912zm-19.272-4.847l-.96-.279a2 2 0 1 0-1.116 3.841l.96.28a2 2 0 1 0 1.116-3.842zm-18.804-6.237l-.937-.35a2 2 0 0 0-1.402 3.745l.936.35a2 2 0 1 0 1.403-3.745zm-18.303-7.679l-.906-.422a2 2 0 0 0-1.691 3.624l.906.423a2 2 0 1 0 1.691-3.625zm-17.656-9.108l-.87-.494a2 2 0 0 0-1.974 3.48l.87.493a2 2 0 1 0 1.974-3.48zm-16.867-10.481l-.827-.561a2 2 0 0 0-2.245 3.31l.828.562a2 2 0 0 0 2.244-3.311zm-15.982-11.775l-.781-.624a2 2 0 0 0-2.496 3.126l.781.624a2 2 0 1 0 2.496-3.126zm-15.042-12.979l-.733-.68a2 2 0 0 0-2.724 2.928l.732.68a2 2 0 1 0 2.725-2.928zm-14.014-14.02l-.682-.732a2 2 0 0 0-2.927 2.725l.68.732a2 2 0 0 0 2.929-2.725zm-13.019-14.983l-.63-.776a2 2 0 1 0-3.106 2.52l.63.777a2 2 0 0 0 3.106-2.52zM88.861 123.63l-.58-.814a2 2 0 0 0-3.259 2.32l.58.814a2 2 0 1 0 3.259-2.32zm-11.035-16.52l-.531-.848a2 2 0 0 0-3.39 2.125l.532.847a2 2 0 1 0 3.389-2.125zM67.722 89.96l-.484-.875a2 2 0 0 0-3.5 1.938l.485.875a2 2 0 0 0 3.5-1.938zm-9.204-17.665l-.44-.897a2 2 0 0 0-3.592 1.76l.44.898a2 2 0 1 0 3.592-1.76zm-8.34-18.073l-.397-.918a2 2 0 0 0-3.67 1.593l.399.918a2 2 0 1 0 3.669-1.593zm-7.54-18.448l-.359-.934a2 2 0 1 0-3.733 1.436l.358.933a2 2 0 1 0 3.734-1.435zM35.856 17.03l-.322-.947a2 2 0 1 0-3.787 1.287l.322.947a2 2 0 1 0 3.787-1.287z" fill="#0A303A" fill-rule="nonzero"/></g></svg>