<svg width="500" height="320" viewBox="0 0 500 320" xmlns="http://www.w3.org/2000/svg" xmlns:xlink="http://www.w3.org/1999/xlink"><defs><path id="a" d="M0 0h500v320H0z"/><path d="M186.179 45.97s-3.923 1.097-8.777 8.757c-4.855 7.659 4.326 25.892-7.455 30.539-6.07 2.395-14.157.058-13.146-10.35 1.012-10.408-4.551-19.782-2.161-28.386s7.047-17.522 16.98-21.085c9.932-3.559 18.449-12.051 32.437-6.746 13.988 5.305 14.028 16.2 20.6 20.404 6.574 4.208 8.647 14.876 4.296 23.547-4.35 8.667-9.659 6.966-9.659 6.966s.72-11.492-2.824-14.294c-3.545-2.807-10.022 10.511-30.291-9.352" id="c"/></defs><g fill="none" fill-rule="evenodd"><mask id="b" fill="#fff"><use xlink:href="#a"/></mask><use fill-opacity="0" fill="#FFF" xlink:href="#a"/><path d="M304.86 180.512s18.515 1.72 35.306-1.54c16.79-3.266 30.387-9.138 36.349-8.39 5.961.747 11.474 10.16-1.368 17.13-12.841 6.977-41.969 9.895-73.878-1.526.377-2.905 3.59-5.674 3.59-5.674" fill="#F2B186" mask="url(#b)"/><path d="M303.928 180.53s-4.165-3.199-10.333-5.318c-6.167-2.115-9.107-1.136-8.376 2.45.731 3.582 7.123 9.087 17.401 9.013 10.278-.078 1.308-6.145 1.308-6.145" fill="#F2B186" mask="url(#b)"/><path d="M327.731 179.345s17.772-2.456 30.659-6.027c12.887-3.566 18.461-6.066 24.034-.159 5.575 5.912 12.28 11.757-.465 16.297-12.745 4.54-45.771 6.526-54.151 4.517-1.087-4.756-.077-14.628-.077-14.628" fill="#FA9837" mask="url(#b)"/><path d="M209.96 149.868s4.25 6.3 13.031 29.67c8.781 23.368 49.55 71.048 49.55 71.048l-12.544 21.377s-50.49-33.13-57.39-62.307c-6.9-29.171 7.353-59.788 7.353-59.788" fill="#EFE6E8" mask="url(#b)"/><path d="M145.67 119.095s-19.384-3.948-31.03-1.808c-11.646 2.135 7.96 120.824 7.96 120.824s38.94 21.283 38.913 21.283c-.027 0 31.97-10.641 31.97-10.641s25.269-79.808 18.724-94.954c-6.545-15.14-25.2-19.953-25.2-19.953l-14.068.717-27.269-15.468" fill="#EFE6E8" mask="url(#b)"/><path d="M129.79 151.663s-.515 34.878 7.42 55.645c7.936 20.768 56.329 41.81 56.329 41.81s-5.084 16.669-10.866 21.722c-5.783 5.057-70.364-8.609-70.364-8.609l-23.808-65.58 41.289-44.988" fill="#E0D5D8" mask="url(#b)"/><path d="M256.382 304.96s-57.306-22.635-73.929-34.43c-28.044-3.662-85.15-13.83-85.15-13.83l-28.552 73.617s23.547-.205 56.587-9.767c26.02-2.438 71.084.014 71.084.014l59.96-15.605" fill="#D7523C" mask="url(#b)"/><path d="M217.97 77.36c-6.788 23.638-25.408 42.997-40.285 38.686-14.877-4.31-20.376-30.65-13.589-54.294 6.788-23.639 23.292-35.628 38.169-31.317 14.877 4.306 22.492 23.28 15.705 46.924" fill="#FFCAA6" mask="url(#b)"/><g mask="url(#b)"><use fill="#020D26" xlink:href="#c"/><use fill="#0A303A" xlink:href="#c"/></g><path d="M182.74 114.448l-4.099 16.2 7.716 3.166s-.51 21.526-19.78 7.998c-19.269-13.524-21.517-22.67-21.517-22.67l8.01 2.667 10.065-26.704 19.605 19.343" fill="#FFCAA6" mask="url(#b)"/><path d="M181.868 116.547s-7.11-1.495-11.912-9.5c-4.801-8.003-5.108-20.712-5.108-20.712l-3.991-1.106s1.32 12.665-.519 17.78l-4.505 12.526 25.283 3.81.752-2.798" fill="#F2B186" mask="url(#b)"/><path d="M99.625 267.396s3.27 55.538-23.427 62.089c-26.695 6.55-33.778-18.56-17.978-71.496 15.799-52.94 39.77-75.865 63.743-49.668 19.375 21.174 41.95 143.542 41.95 143.542H144.3s-37.048-48.316-44.675-84.467" fill="#F15F46" mask="url(#b)"/><path d="M124.679 346.633s95.09 4.178 126.126-7.307 23.112-44.377-30.376-36.546c-53.488 7.832-104.995 28.19-104.995 28.19l9.245 15.663" fill="#F15F46" mask="url(#b)"/><path d="M156.73 316.85l6.109 29.626 28.904-.473s-21.875-5.68-35.012-29.153" fill="#CC524C" mask="url(#b)"/><path d="M331.032 295.304h-85.56c-5.874 0-10.637 6.939-10.637 15.503 0 8.559 4.763 15.497 10.636 15.497h85.561c5.874 0 10.636-6.938 10.636-15.497 0-8.564-4.762-15.503-10.636-15.503" fill="#FFF" mask="url(#b)"/><path d="M325.19 271.065h-74.775c-5.134 0-9.295 5.425-9.295 12.117 0 6.697 4.161 12.122 9.295 12.122h74.776c5.133 0 9.295-5.425 9.295-12.122 0-6.692-4.162-12.117-9.295-12.117" fill="#165787" mask="url(#b)"/><path d="M321.685 246.825h-66.867c-4.59 0-8.312 5.43-8.312 12.12 0 6.691 3.722 12.12 8.312 12.12h66.867c4.591 0 8.313-5.429 8.313-12.12 0-6.69-3.722-12.12-8.313-12.12" fill="#FFC54A" mask="url(#b)"/><path d="M318.09 221.688h-59.676c-4.097 0-7.419 5.426-7.419 12.122 0 6.692 3.322 12.118 7.418 12.118h59.678c4.096 0 7.418-5.426 7.418-12.118 0-6.696-3.322-12.122-7.418-12.122" fill="#167287" mask="url(#b)"/><path d="M311.53 197.449h-47.454c-3.258 0-5.899 5.425-5.899 12.117 0 6.697 2.64 12.122 5.899 12.122h47.454c3.258 0 5.899-5.425 5.899-12.122 0-6.692-2.641-12.117-5.899-12.117" fill="#F9B8B8" mask="url(#b)"/><path d="M296.43 173.21h-17.255c-1.185 0-2.145 5.428-2.145 12.12 0 6.694.96 12.119 2.145 12.119h17.256c1.185 0 2.145-5.425 2.145-12.12 0-6.69-.96-12.12-2.145-12.12" fill="#0A303A" mask="url(#b)"/><path d="M124.428 272.887c.611-.166 18.807-5.171 26.837 2.156 8.03 7.328-2.536 12.386-16.905 12.175-14.37-.211-24.724-10.328-9.932-14.331" fill="#FFCAA6" mask="url(#b)"/><path d="M114.437 117.549s-11.482 2.227-22.21 15.737c-10.73 13.506-48.358 72.881-42.64 92.043 5.72 19.163 51.248 46.334 71.557 57.407 2.953-6.831 6.729-14.372 6.729-14.372s-44.482-39.896-45.744-45.236c-1.262-5.34 47.661-71.514 47.661-71.514s.862-17.765-15.353-34.065" fill="#EFE6E8" mask="url(#b)"/><path d="M354.425 243.13s-5.592 44.543 8.603 95.037c6.195.516 12.171 0 12.171 0s1.326-55.026 5.197-53.07c3.872 1.957 19.54 53.07 19.54 53.07h13.553s-.742-19.934-4.047-29.851c-.986-20.481 1.395-40.738-.377-61.116-1.773-20.383-54.64-4.07-54.64-4.07" fill="#0A303A" mask="url(#b)"/><path d="M411.228 140.973c-8.439 16.151-27.471 26.155-40.89 19.243-13.417-6.917-16.138-28.128-7.698-44.28 8.44-16.15 24.844-21.12 38.262-14.204 13.417 6.912 18.765 23.09 10.326 39.241" fill="#FFCAA6" mask="url(#b)"/><path d="M394.619 122.638c1.974 1.43 3.508 6.107 1.484 10.391-2.028 4.285-6.571 6.743-3.696 11.84 2.876 5.103-4.23 9.09.71 13.855 4.939 4.769 16.066 5.715 20.448-1.796 4.378-7.507 1.765-15.979 4.547-20.539 2.777-4.56 13.708-13.894 4.008-26.96-9.705-13.063-18.024-10.33-21.929-12.89-3.9-2.556-11.007-8.258-17.25-6.485-6.242 1.774-6.717 5.814-10.834 6.938-4.118 1.125-13.22 4.934-14.806 12.005-1.586 7.067 2.008 12.69 8.984 12.543 6.977-.147 8.203-1.45 11.617 1.027 3.415 2.48 6.347 4.333 10.77 3.43 4.426-.901 5.947-3.36 5.947-3.36" fill="#E74C25" mask="url(#b)"/><path d="M394.485 173.593s8.091 13.378 12.279 33.94c4.183 20.556 4.93 42.898 4.93 42.898s-15.313 5.123-36.38 3.106c-21.065-2.02-24.668-6.982-24.668-6.982s7.724-36.81 11.317-50.968c3.593-14.157 7.036-22.127 14.938-25.154 7.902-3.026 12.575-2.083 17.584 3.16" fill="#FA9837" mask="url(#b)"/><path d="M372.971 169.753s3.454-4.198 4.23-9.554c.776-5.355 12.946-2.259 12.946-2.259l-.762 11.996s-11.42 5.337-17.029 5.058c-5.608-.279-1.612-4.24.615-5.24" fill="#FFCAA6" mask="url(#b)"/><path d="M376.157 162.26s7.64.849 13.092-1.62c-.054.76-.13 1.915-.13 1.915s-2.438 2.984-7.847 4.404c-5.411 1.425-7.284.657-7.284.657l2.17-5.357" fill="#F2B186" mask="url(#b)"/><path d="M318.535 192.705s18.74-.582 35.146-5.861c16.406-5.279 29.298-12.741 35.353-12.737 6.058 0 12.722 8.603.717 17.059-12.001 8.45-40.795 14.91-74.118 7.574.024-2.908 2.902-6.035 2.902-6.035" fill="#FFCAA6" mask="url(#b)"/><path d="M317.773 192.405s-4.537-2.827-10.926-4.27c-6.389-1.444-9.184-.051-8.009 3.617 1.176 3.664 8.213 8.63 18.408 7.26 10.194-1.37.527-6.607.527-6.607" fill="#FFCAA6" mask="url(#b)"/><path d="M341.668 188.805s17.378-4.641 29.758-9.802c12.38-5.161 17.618-8.356 23.895-3.1 6.277 5.255 2.132 14.331-9.987 20.451-12.118 6.12-33.189 8.132-41.776 7.137-1.67-4.641-1.89-14.686-1.89-14.686" fill="#ED8629" mask="url(#b)"/><g mask="url(#b)" fill="#457670"><path d="M390.048 363.34c1.098-.016 9.688.09 19.97-2.081 14.417-3.04 25.143-9.112 31.01-17.557 12.363-17.786 9.747-32.955 8.334-41.106-.2-1.156-.375-2.163-.475-3-.883-7.79-.512-16.955 8.992-25.926l.616-.58c10.397-9.81 18.606-17.553 19.373-39.837.77-22.443 2.935-27.748 5.22-33.37 1.79-4.387 1.83-8.709.132-11.564-1.186-1.984-3.125-3.17-5.615-3.434-6.112-.635-12.892 3.78-17.692 11.53l-.262.419c-4.222 6.827-11.3 18.262-22.171 24.005-1.056.562-2.12 1.107-3.174 1.66-10.417 5.4-21.189 10.987-23.798 22.614-.734 3.27-1.021 6.145-1.29 8.922-.746 7.557-1.342 13.533-10.587 22.738-1.02 1.02-2.109 2.05-3.226 3.112-13.302 12.638-31.482 29.925-7.189 81.698.119.249.47.299.631.073 6.06-8.433 12.591-18.733 17.803-29.91a.36.36 0 0 0-.02-.352c-1.713-2.565-9.19-14.024-11.683-22.757a.748.748 0 1 1 1.44-.406c2.127 7.45 8.202 17.274 10.717 21.155a.37.37 0 0 0 .642-.05c2.104-4.752 3.964-9.64 5.42-14.606a499.273 499.273 0 0 1 5.64-18.044.34.34 0 0 0-.03-.291c-.879-1.503-5.306-9.6-6.252-21.307a.744.744 0 0 1 .681-.806.743.743 0 0 1 .805.683c.716 8.833 3.531 15.66 5.109 18.874.144.293.567.248.669-.059 3.934-11.498 7.929-21.41 12.048-29.912a.335.335 0 0 0-.037-.37c-1.134-1.5-4.998-7.623-2.953-19.603a.745.745 0 0 1 .863-.61.735.735 0 0 1 .609.864c-1.615 9.47.685 15.1 2.032 17.439a.358.358 0 0 0 .633-.033c4.414-8.779 8.977-16.005 13.787-21.82a163.618 163.618 0 0 0 4.95-6.286.345.345 0 0 0 .067-.29c-.344-1.414-1.606-7.123-.733-11.86.078-.404.478-.688.872-.602.402.078.677.46.6.873-.592 3.203-.105 6.997.32 9.328.056.318.476.396.665.135 6.456-8.998 8.353-13.974 8.38-14.044a.747.747 0 0 1 .966-.441.743.743 0 0 1 .44.958c-.13.341-3.197 8.483-15.357 23.183-2.684 3.245-5.287 6.95-7.837 11.104a.363.363 0 0 0 .271.56c2.746.267 9.098.22 15.436-4.538a.742.742 0 0 1 1.043.15c.249.33.179.805-.15 1.054-5.698 4.276-11.315 5.005-14.758 4.945a18.362 18.362 0 0 1-2.754-.241.348.348 0 0 0-.372.17c-4.437 7.571-8.698 16.652-12.874 27.39a.372.372 0 0 0 .22.487c2.297.78 9.85 2.39 18.607-6.04a.746.746 0 0 1 1.035 1.075c-6.13 5.897-11.783 7.171-15.674 7.103-2.063-.036-3.638-.45-4.528-.757a.36.36 0 0 0-.46.212c-3.555 9.33-7.042 19.869-10.536 31.79-1.662 5.675-3.833 11.262-6.317 16.659-.018.034-.028.078-.055.113a159.212 159.212 0 0 1-3.588 7.244c-.145.279.095.6.395.526 4.385-1.068 15.574-4.42 25.866-12.726a.75.75 0 0 1 .937 1.17c-12.671 10.227-26.716 13.124-28.338 13.44a.326.326 0 0 0-.232.18c-4.265 7.778-8.967 14.932-13.405 21.087-.035-.036-.457.502.176.496v-.002z"/></g></g></svg>